PathFileType	4	(X/Y/Z)	E:/Marcel_BSc/Hannes_22_01_2025/22-01-2025/static_01_hjc.trc	
DataRate	CameraRate	NumFrames	NumMarkers	Units	OrigDataRate	OrigDataStartFrame	OrigNumFrames	
200.00	200.00	4	72	mm	200.00	63	497	
Frame#	Time	FHD			LBHD			RBHD			RBAR			LBAR			RASI			RSACR			LSACR			LASI			USACR			C7			CLAV			T10			RSHO			LSHO			LTHI1			LTHI3			LTHI2			LLFC			LMFC			LTIB1			LTIB2			LTIB3			LMMAL			LLMAL			LHEE			LMT1			LMT5			LMT3			RTHI1			RTHI2			RTHI3			RLFC			RMFC			RTIB1			RTIB3			RTIB2			RLMAL			RMMAL			RHEE			RMT5			RMT1			RMT3			LMEP			LLEP			LDUPA			LMUPA			LUUPA			LUL			LRAD			LRFIN			RUL			RRAD			RUFIN			RMEP			RLEP			RMUPA			RDUPA			RUUPA			*59			*60			*61			*62			*63			*64			*65			RAJC			LAJC			LKJC			RKJC			LHJC			RHJC			
		X1	Y1	Z1	X2	Y2	Z2	X3	Y3	Z3	X4	Y4	Z4	X5	Y5	Z5	X6	Y6	Z6	X7	Y7	Z7	X8	Y8	Z8	X9	Y9	Z9	X10	Y10	Z10	X11	Y11	Z11	X12	Y12	Z12	X13	Y13	Z13	X14	Y14	Z14	X15	Y15	Z15	X16	Y16	Z16	X17	Y17	Z17	X18	Y18	Z18	X19	Y19	Z19	X20	Y20	Z20	X21	Y21	Z21	X22	Y22	Z22	X23	Y23	Z23	X24	Y24	Z24	X25	Y25	Z25	X26	Y26	Z26	X27	Y27	Z27	X28	Y28	Z28	X29	Y29	Z29	X30	Y30	Z30	X31	Y31	Z31	X32	Y32	Z32	X33	Y33	Z33	X34	Y34	Z34	X35	Y35	Z35	X36	Y36	Z36	X37	Y37	Z37	X38	Y38	Z38	X39	Y39	Z39	X40	Y40	Z40	X41	Y41	Z41	X42	Y42	Z42	X43	Y43	Z43	X44	Y44	Z44	X45	Y45	Z45	X46	Y46	Z46	X47	Y47	Z47	X48	Y48	Z48	X49	Y49	Z49	X50	Y50	Z50	X51	Y51	Z51	X52	Y52	Z52	X53	Y53	Z53	X54	Y54	Z54	X55	Y55	Z55	X56	Y56	Z56	X57	Y57	Z57	X58	Y58	Z58	X59	Y59	Z59	X60	Y60	Z60	X61	Y61	Z61	X62	Y62	Z62	X63	Y63	Z63	X64	Y64	Z64	X65	Y65	Z65	X66	Y66	Z66	X67	Y67	Z67	X68	Y68	Z68	X69	Y69	Z69	X70	Y70	Z70	X71	Y71	Z71	X72	Y72	Z72	

63	0.310	66.75270	1221.88220	1709.51257	150.49031	1120.53760	1680.46667	163.48334	1314.71033	1675.64502	-530.18323	2111.46240	25.84105	-499.41006	-112.26530	36.26009	110.39501	1329.99304	988.20239	303.15503	1256.05762	1050.10669	303.50204	1148.73938	1055.48474	116.71708	1060.95093	994.87091	304.05225	1201.68396	1074.59790	294.79495	1206.90295	1492.98901	124.63770	1207.34180	1448.97681	293.87299	1202.08691	1170.71375	274.62198	1366.56091	1484.26770	272.56461	1046.60144	1491.38354	212.91339	982.96729	791.86493	234.16306	982.47125	729.00378	184.10493	973.50684	731.98376	223.53810	998.68042	504.24762	206.77733	1106.63489	464.94080	269.37939	961.71234	267.89139	319.77316	966.76099	278.00351	306.12711	968.41846	214.09186	277.47241	1054.38635	86.21742	309.66693	965.93463	80.12927	354.48886	1015.23309	22.02072	142.83678	996.74091	39.99634	185.66692	915.63513	26.60208	149.05751	948.56775	30.09479	222.89767	1410.29944	782.12317	191.05737	1417.40674	724.34436	240.52664	1408.81494	717.84668	218.39955	1384.04126	494.84280	196.28044	1277.51855	477.63757	244.97049	1414.12427	277.46469	268.75592	1414.03589	215.68590	295.14075	1422.79834	274.36523	295.14868	1409.93481	79.98558	257.50092	1322.70947	83.38080	343.88684	1366.31702	30.20582	184.15604	1460.96802	27.41248	124.55434	1389.71741	36.01851	135.75038	1438.15332	28.37340	215.48029	769.61017	1357.43982	278.56638	762.12708	1447.99451	287.53165	829.02277	1441.38599	253.19209	887.75977	1482.94360	290.56784	890.21826	1449.90137	197.68036	520.02545	1480.82788	155.64423	534.65295	1501.77869	113.06908	434.34589	1493.05042	218.45323	1902.24414	1467.06982	174.82155	1883.92212	1491.62048	158.20822	1996.56287	1486.59424	231.58385	1638.15369	1351.76135	296.95047	1653.55225	1439.85229	311.29453	1548.07080	1426.19495	290.97256	1585.93591	1451.04639	290.98715	1509.32861	1471.35535	-580.42133	2000.62561	3.53863	-534.17310	1926.77649	32.85786																276.32480	1366.32214	81.68319	293.56967	1010.16049	83.17335	215.15771	1052.65765	484.59421	207.34000	1330.77991	486.24019	210.10956	1104.84515	1025.17783	206.77502	1293.02533	1019.15454 
64	0.315	66.69743	1221.84705	1709.51782	150.48166	1120.53076	1680.45435	163.45557	1314.70728	1675.63965	-530.21057	2111.43604	25.81644	-499.41721	-112.26969	36.26093	110.32863	1329.97510	988.16681	303.14395	1256.04260	1050.10718	303.48792	1148.72852	1055.47815	116.70249	1060.95215	994.86176	304.02911	1201.67615	1074.59045	294.78372	1206.90686	1492.98645	124.61739	1207.34106	1448.97498	293.85706	1202.06787	1170.71582	274.61050	1366.55432	1484.25903	272.56021	1046.60364	1491.38074	212.88580	982.96277	791.90881	234.14418	982.45306	729.01740	184.11694	973.49451	731.99432	223.52666	998.68030	504.24805	206.77621	1106.59326	464.96030	269.39816	961.72784	267.88696	319.74426	966.76172	277.98718	306.12604	968.40369	214.10085	277.47055	1054.39209	86.22230	309.67365	965.94244	80.12090	354.48105	1015.23071	22.01860	142.83807	996.74060	39.99677	185.67218	915.63342	26.59650	149.05840	948.56665	30.09613	222.88864	1410.30664	782.12683	191.06067	1417.40869	724.35071	240.49371	1408.79712	717.86578	218.40874	1384.05688	494.85623	196.27579	1277.51428	477.62253	245.00414	1414.19360	277.42926	268.74481	1414.02441	215.71809	295.14554	1422.80127	274.37036	295.14893	1409.92810	79.98243	257.49957	1322.71741	83.38013	343.85471	1366.35132	30.20168	184.15492	1460.96826	27.40336	124.54951	1389.71863	36.00813	135.75291	1438.15112	28.37330	215.48570	769.61505	1357.45947	278.56433	762.13434	1448.01257	287.52341	829.02344	1441.40002	253.23865	887.85730	1483.09961	290.56097	890.23340	1449.92151	197.68153	520.02692	1480.87183	155.64738	534.64948	1501.83032	113.07203	434.35733	1493.09143	218.43771	1902.22485	1467.11572	174.82213	1883.91772	1491.67078	158.22458	1996.56152	1486.65515	231.74248	1638.31775	1351.56018	296.94492	1653.54297	1439.87048	311.28482	1548.08374	1426.20728	290.93961	1585.90002	1451.08362	290.96884	1509.33240	1471.36719							-506.11066	-31.56076	40.67142	-535.59668	1939.50073	33.05260										276.32425	1366.32275	81.68128	293.57210	1010.16727	83.17160	215.15144	1052.63678	484.60417	207.34226	1330.78558	486.23938	210.09520	1104.84033	1025.16995	206.73629	1293.00885	1019.13699 
65	0.320	66.25227	1221.53894	1709.79663	150.47458	1120.52136	1680.45947	163.40677	1314.69775	1675.65320	-530.20569	2111.42554	25.83166	-499.42932	-112.27538	36.26682	110.35204	1330.00000	988.19000	303.12561	1256.04590	1050.10742	303.46997	1148.71985	1055.48694	116.68354	1060.94922	994.86505	304.01685	1201.67041	1074.59399	294.77997	1206.91333	1492.97632	124.61112	1207.33972	1448.97949	293.85529	1202.05969	1170.71582	274.60233	1366.55774	1484.25635	272.55176	1046.61584	1491.39063	212.89331	982.96082	791.87494	234.11046	982.46484	729.01837	184.10925	973.49176	731.98810	223.52704	998.66724	504.25372	206.76512	1106.59338	464.96127	269.39972	961.71765	267.87292	319.73660	966.74310	278.00778	306.11697	968.40454	214.10147	277.46204	1054.39941	86.22459	309.67145	965.94165	80.13309	354.48242	1015.22913	22.02300	142.84074	996.73956	39.99158	185.65604	915.63593	26.60241	149.06680	948.56970	30.08732	222.88643	1410.29004	782.12567	191.05170	1417.40161	724.35620	240.50485	1408.78857	717.87604	218.40483	1384.04590	494.85321	196.27509	1277.50061	477.63910	244.99760	1414.14795	277.48788	268.76062	1414.03564	215.69879	295.14584	1422.80066	274.37006	295.14630	1409.90527	79.98297	257.50272	1322.70996	83.37457	343.86243	1366.31836	30.19296	184.14822	1460.96204	27.39985	124.55376	1389.70691	36.01508	135.75993	1438.15466	28.36990	215.47572	769.62366	1357.49854	278.54367	762.13373	1448.05847	287.52634	829.03345	1441.42712	253.23932	887.85834	1483.12830	290.55634	890.24158	1449.94324	197.67863	520.06970	1480.90649	155.63831	534.66687	1501.86218	113.04733	434.37231	1493.15063	218.40753	1902.14697	1467.19824	174.82419	1883.90686	1491.73083	158.23883	1996.55786	1486.72119	231.73660	1638.33081	1351.58203	296.93433	1653.55884	1439.89587	311.26407	1548.07874	1426.21106	290.92014	1585.90442	1451.09436	290.95099	1509.33289	1471.37573	-514.54858	15.84103	46.67870							-535.28320	1939.24878	33.11417										276.32451	1366.30762	81.67877	293.56674	1010.17053	83.17884	215.14608	1052.63031	484.60750	207.33996	1330.77325	486.24615	210.07676	1104.83453	1025.17599	206.73882	1293.02295	1019.14871 
66	0.325	66.20676	1221.53198	1709.77795	150.45853	1120.52161	1680.44104	163.35532	1314.69531	1675.65332	-530.23364	2111.44238	25.82836	-499.42633	-112.27694	36.26735	110.38084	1329.95313	988.23108	303.11713	1256.04346	1050.10803	303.44858	1148.71399	1055.48926	116.67079	1060.93933	994.86963	303.99957	1201.66553	1074.59229	294.75635	1206.91418	1492.98718	124.60181	1207.34387	1448.97119	293.82886	1202.04639	1170.71826	274.60611	1366.55322	1484.25439	272.54523	1046.62427	1491.39941	212.87129	982.94617	791.91895	234.08098	982.45593	729.02435	184.08098	973.48102	731.99719	223.51068	998.67017	504.24054	206.75954	1106.59680	464.96014	269.35846	961.70514	267.86728	319.75259	966.74829	277.98715	306.12366	968.40686	214.10515	277.45694	1054.39734	86.22095	309.66895	965.93494	80.12765	354.48328	1015.20990	22.01494	142.83784	996.73724	39.99293	185.65814	915.63354	26.60125	149.06226	948.56250	30.09297	222.88376	1410.27234	782.13446	191.05397	1417.40173	724.35522	240.48924	1408.75842	717.86804	218.40668	1384.04565	494.85031	196.26277	1277.50378	477.62686	245.04147	1414.29675	277.41403	268.75571	1414.02979	215.69238	295.14603	1422.78625	274.37192	295.15671	1409.92688	79.98286	257.49319	1322.70776	83.37106	343.86844	1366.30286	30.17409	184.15691	1460.96301	27.39497	124.54642	1389.71582	36.00573	135.75558	1438.15674	28.35950	215.45747	769.62640	1357.51453	278.53857	762.14331	1448.07129	287.51730	829.04010	1441.43384	253.22845	887.87500	1483.14038	290.55298	890.24261	1449.96545	197.68330	520.06305	1480.93713	155.64240	534.66675	1501.90063	113.05875	434.37183	1493.19080	218.39058	1902.10913	1467.24963	174.82896	1883.91150	1491.76318	158.24672	1996.54651	1486.79614	231.72299	1638.34229	1351.59338	296.90848	1653.55188	1439.91199	311.25504	1548.07874	1426.22021	290.89218	1585.88293	1451.12854	290.93781	1509.32544	1471.36987				-534.19598	1926.58984	32.93167																276.32495	1366.31732	81.67696	293.56294	1010.16614	83.17430	215.13511	1052.63348	484.60034	207.33472	1330.77472	486.23859	210.05968	1104.82666	1025.17944	206.74899	1292.99829	1019.16956 
